solid OpenSCAD_Model
  facet normal -0 0 1
    outer loop
      vertex 1e-05 3 3
      vertex 3.00001 0 3
      vertex 3.00001 3 3
    endloop
  endfacet
  facet normal 0 0 1
    outer loop
      vertex 3.00001 0 3
      vertex 1e-05 3 3
      vertex 1e-05 0 3
    endloop
  endfacet
  facet normal 0 0 -1
    outer loop
      vertex 1e-05 0 0
      vertex 3.00001 3 0
      vertex 3.00001 0 0
    endloop
  endfacet
  facet normal -0 0 -1
    outer loop
      vertex 3.00001 3 0
      vertex 1e-05 0 0
      vertex 1e-05 3 0
    endloop
  endfacet
  facet normal 0 -1 0
    outer loop
      vertex 1e-05 0 0
      vertex 3.00001 0 3
      vertex 1e-05 0 3
    endloop
  endfacet
  facet normal 0 -1 -0
    outer loop
      vertex 3.00001 0 3
      vertex 1e-05 0 0
      vertex 3.00001 0 0
    endloop
  endfacet
  facet normal 1 -0 0
    outer loop
      vertex 3.00001 0 3
      vertex 3.00001 3 0
      vertex 3.00001 3 3
    endloop
  endfacet
  facet normal 1 0 0
    outer loop
      vertex 3.00001 3 0
      vertex 3.00001 0 3
      vertex 3.00001 0 0
    endloop
  endfacet
  facet normal 0 1 -0
    outer loop
      vertex 3.00001 3 0
      vertex 1e-05 3 3
      vertex 3.00001 3 3
    endloop
  endfacet
  facet normal 0 1 0
    outer loop
      vertex 1e-05 3 3
      vertex 3.00001 3 0
      vertex 1e-05 3 0
    endloop
  endfacet
  facet normal -1 0 0
    outer loop
      vertex 1e-05 0 0
      vertex 1e-05 3 3
      vertex 1e-05 3 0
    endloop
  endfacet
  facet normal -1 -0 0
    outer loop
      vertex 1e-05 3 3
      vertex 1e-05 0 0
      vertex 1e-05 0 3
    endloop
  endfacet
endsolid OpenSCAD_Model
